<svg width="24" height="24" viewBox="0 0 24 24" fill="none" xmlns="http://www.w3.org/2000/svg">
<mask id="mask0_519_13856" style="mask-type:alpha" maskUnits="userSpaceOnUse" x="4" y="0" width="16" height="24">
<path fill-rule="evenodd" clip-rule="evenodd" d="M15.6923 4.61516C15.6923 2.57595 14.0392 0.922852 12 0.922852C9.96076 0.922852 8.30765 2.57595 8.30765 4.61516V11.9998C8.30765 14.039 9.96076 15.6921 12 15.6921C14.0392 15.6921 15.6923 14.039 15.6923 11.9998V4.61516ZM10.6153 19.7241V20.769H8.30765C7.54295 20.769 6.92304 21.3889 6.92304 22.1536C6.92304 22.9183 7.54295 23.5382 8.30765 23.5382H15.6923C16.457 23.5382 17.0769 22.9183 17.0769 22.1536C17.0769 21.3889 16.457 20.769 15.6923 20.769H13.3846V19.7241C17.0575 19.0702 19.8461 15.8606 19.8461 11.9998V10.1536C19.8461 9.38892 19.2262 8.76901 18.4615 8.76901C17.6968 8.76901 17.0769 9.38892 17.0769 10.1536V11.9998C17.0769 14.8037 14.8039 17.0767 12 17.0767C9.19605 17.0767 6.92304 14.8037 6.92304 11.9998V10.1536C6.92304 9.38892 6.30313 8.76901 5.53842 8.76901C4.77372 8.76901 4.15381 9.38892 4.15381 10.1536V11.9998C4.15381 15.8606 6.94241 19.0702 10.6153 19.7241Z" fill="white"/>
</mask>
<g mask="url(#mask0_519_13856)">
<rect width="24" height="24" fill="white"/>
</g>
</svg>
