<svg width="24" height="24" viewBox="0 0 24 24" fill="none" xmlns="http://www.w3.org/2000/svg">
<mask id="mask0_529_7583" style="mask-type:alpha" maskUnits="userSpaceOnUse" x="2" y="2" width="20" height="20">
<path d="M21.589 19.3089C21.5916 19.9587 21.3202 20.5795 20.8414 21.0188C20.3625 21.458 19.7207 21.6751 19.0653 21.6158C16.153 21.2993 13.3556 20.3042 10.9014 18.7126C8.61393 17.2591 6.67453 15.3197 5.22314 13.0356C3.62371 10.5666 2.62835 7.75561 2.31699 4.82309C2.25869 4.17795 2.47423 3.538 2.91095 3.05958C3.34767 2.58116 3.96537 2.30832 4.61358 2.30771L7.37827 2.30773C8.53657 2.29633 9.52385 3.14539 9.68654 4.29659C9.79887 5.14829 10.0072 5.98456 10.3071 6.78839C10.6241 7.63171 10.4214 8.5824 9.78609 9.22483L8.86565 10.1453C10.0706 12.1485 11.7482 13.8261 13.7514 15.031L14.6737 14.1088C15.3143 13.4753 16.265 13.2725 17.1072 13.5891C17.9121 13.8895 18.7484 14.0978 19.6042 14.2107C20.7625 14.3741 21.615 15.3782 21.589 16.547L21.589 19.3089Z" fill="white"/>
</mask>
<g mask="url(#mask0_529_7583)">
<rect width="24" height="24" fill="white"/>
</g>
</svg>
