<svg width="24" height="24" viewBox="0 0 24 24" fill="none" xmlns="http://www.w3.org/2000/svg">
<mask id="mask0_519_13854" style="mask-type:alpha" maskUnits="userSpaceOnUse" x="4" y="4" width="16" height="16">
<path fill-rule="evenodd" clip-rule="evenodd" d="M12 4.15381C11.2353 4.15381 10.6153 4.77372 10.6153 5.53842V10.6153H5.53842C4.77372 10.6153 4.15381 11.2353 4.15381 12C4.15381 12.7647 4.77372 13.3846 5.53842 13.3846H10.6153V18.4615C10.6153 19.2262 11.2353 19.8461 12 19.8461C12.7647 19.8461 13.3846 19.2262 13.3846 18.4615V13.3846H18.4615C19.2262 13.3846 19.8461 12.7647 19.8461 12C19.8461 11.2353 19.2262 10.6153 18.4615 10.6153H13.3846V5.53842C13.3846 4.77372 12.7647 4.15381 12 4.15381Z" fill="white"/>
</mask>
<g mask="url(#mask0_519_13854)">
<rect width="24" height="24" fill="white"/>
</g>
</svg>
