<svg width="24" height="24" viewBox="0 0 24 24" fill="none" xmlns="http://www.w3.org/2000/svg">
<mask id="mask0_529_7577" style="mask-type:alpha" maskUnits="userSpaceOnUse" x="2" y="2" width="20" height="20">
<path fill-rule="evenodd" clip-rule="evenodd" d="M21.2867 19.3285L18.1794 16.2212C19.2278 14.7762 19.8461 12.9987 19.8461 11.0768C19.8461 6.23374 15.92 2.30762 11.0768 2.30762C6.23374 2.30762 2.30762 6.23374 2.30762 11.0768C2.30762 15.92 6.23374 19.8461 11.0768 19.8461C12.9987 19.8461 14.7762 19.2278 16.2212 18.1794L19.3285 21.2867C19.8693 21.8274 20.746 21.8274 21.2867 21.2867C21.8274 20.746 21.8274 19.8693 21.2867 19.3285ZM17.0768 11.0768C17.0768 12.6824 16.4462 14.1406 15.4192 15.2174C15.3826 15.2472 15.3472 15.2791 15.3132 15.3132C15.2791 15.3472 15.2472 15.3826 15.2174 15.4192C14.1406 16.4462 12.6824 17.0768 11.0768 17.0768C7.76314 17.0768 5.07685 14.3906 5.07685 11.0768C5.07685 7.76314 7.76314 5.07685 11.0768 5.07685C14.3906 5.07685 17.0768 7.76314 17.0768 11.0768Z" fill="white"/>
</mask>
<g mask="url(#mask0_529_7577)">
<rect width="24" height="24" fill="white"/>
</g>
</svg>
